<svg width="40" height="40" viewBox="0 0 40 40" fill="none" xmlns="http://www.w3.org/2000/svg">
<path d="M20.0003 37.9166C18.8837 37.9166 17.7503 37.6332 16.7503 37.0499L6.85034 31.3333C4.85034 30.1666 3.60034 28.0166 3.60034 25.6999V14.3C3.60034 11.9833 4.85034 9.8333 6.85034 8.66664L16.7503 2.94998C18.7503 1.78332 21.2337 1.78332 23.2503 2.94998L33.1503 8.66664C35.1503 9.8333 36.4003 11.9833 36.4003 14.3V25.6999C36.4003 28.0166 35.1503 30.1666 33.1503 31.3333L23.2503 37.0499C22.2503 37.6332 21.117 37.9166 20.0003 37.9166ZM20.0003 4.58328C19.317 4.58328 18.617 4.76663 18.0003 5.11663L8.10034 10.8333C6.86701 11.5499 6.10034 12.8666 6.10034 14.3V25.6999C6.10034 27.1166 6.86701 28.4499 8.10034 29.1666L18.0003 34.8833C19.2337 35.5999 20.767 35.5999 22.0003 34.8833L31.9003 29.1666C33.1337 28.4499 33.9003 27.1333 33.9003 25.6999V14.3C33.9003 12.8833 33.1337 11.5499 31.9003 10.8333L22.0003 5.11663C21.3837 4.76663 20.6837 4.58328 20.0003 4.58328Z" fill="#63B85C"/>
<path d="M19.9998 19.5834C17.1665 19.5834 14.8665 17.2834 14.8665 14.4501C14.8665 11.6167 17.1665 9.3168 19.9998 9.3168C22.8331 9.3168 25.1331 11.6167 25.1331 14.4501C25.1331 17.2834 22.8331 19.5834 19.9998 19.5834ZM19.9998 11.8168C18.5498 11.8168 17.3665 13.0001 17.3665 14.4501C17.3665 15.9001 18.5498 17.0834 19.9998 17.0834C21.4498 17.0834 22.6331 15.9001 22.6331 14.4501C22.6331 13.0001 21.4498 11.8168 19.9998 11.8168Z" fill="#63B85C"/>
<path d="M26.6666 29.0168C25.9833 29.0168 25.4166 28.4502 25.4166 27.7668C25.4166 25.4668 22.9833 23.5836 19.9999 23.5836C17.0166 23.5836 14.5833 25.4668 14.5833 27.7668C14.5833 28.4502 14.0166 29.0168 13.3333 29.0168C12.6499 29.0168 12.0833 28.4502 12.0833 27.7668C12.0833 24.0835 15.6333 21.0836 19.9999 21.0836C24.3666 21.0836 27.9166 24.0835 27.9166 27.7668C27.9166 28.4502 27.3499 29.0168 26.6666 29.0168Z" fill="#63B85C"/>
</svg>
